# xmcd CD database file
#
# Track frame offsets:
#	150
#	18108
#	34432
#	56856
#	73573
#	100211
#	118876
#	143314
#	160664
#	179864
#	210088
#	229173
#	246133
#	268999
#	290803
#
# Disc length: 4262 seconds
#
# Revision: 1
# Processed by: cddbd v1.5.1PL0 Copyright (c) Steve Scherf et al.
# Submitted via: CDex 1.51
#
DISCID=df10a40f
DTITLE=Various Artist - Jazz Forever
DYEAR=2005
DGENRE=Jazz
TTITLE0=Besame Mucho - Art Pepper
TTITLE1=Copacabana - Sarah Vaughan
TTITLE2=Rio Acima - Luiz Bonfa
TTITLE3=Killing Me Softly With His Song - Woody Herman
TTITLE4=Am I Blue - Ruth Brown
TTITLE5=Sometimes I Fell Like A Motherless Child - Nat Adderley
TTITLE6=Te Quiero - Chico O'Farrill
TTITLE7=The Windmills of Your Mind - Freddy Cole
TTITLE8=The Gentle Rain - Joe Pass
TTITLE9=What Am I Here For - Art Farmer
TTITLE10=Hard Times - Mildred Anderson
TTITLE11=Don't Lend Your Guitar to Anyone - Cal Tjader and Chalrie Byrd
TTITLE12=Corner Pocket - Count Basie
TTITLE13=Song for You - Ron Carter
TTITLE14=Go Down Moses - Hampton Hawes
EXTD=YEAR: 2005
EXTT0=
EXTT1=
EXTT2=
EXTT3=
EXTT4=
EXTT5=
EXTT6=
EXTT7=
EXTT8=
EXTT9=
EXTT10=
EXTT11=
EXTT12=
EXTT13=
EXTT14=
PLAYORDER=
